<svg width="1200" height="675" viewBox="0 0 1200 675" fill="none" xmlns="http://www.w3.org/2000/svg"><rect width="1200" height="675" rx="36" fill="#08111C"/><rect x="60" y="60" width="1080" height="555" rx="32" fill="#101827" stroke="#263247"/><text x="100" y="125" fill="#A7F3D0" font-family="Inter,Arial" font-size="22" font-weight="800">Industry-aware CRM</text><text x="100" y="180" fill="white" font-family="Inter,Arial" font-size="46" font-weight="900">Auto · Kineto · Psychology · Beauty</text><g transform="translate(100 245)"><rect width="220" height="230" rx="24" fill="#172033"/><text x="24" y="54" fill="white" font-family="Inter,Arial" font-size="24" font-weight="800">Auto</text><text x="24" y="98" fill="#AAB3C5" font-family="Inter,Arial" font-size="17">Fișă mașină</text><text x="24" y="132" fill="#AAB3C5" font-family="Inter,Arial" font-size="17">Diagnoză</text><text x="24" y="166" fill="#AAB3C5" font-family="Inter,Arial" font-size="17">Deviz</text></g><g transform="translate(355 245)"><rect width="220" height="230" rx="24" fill="#172033"/><text x="24" y="54" fill="white" font-family="Inter,Arial" font-size="24" font-weight="800">Kineto</text><text x="24" y="98" fill="#AAB3C5" font-family="Inter,Arial" font-size="17">Diagnostic</text><text x="24" y="132" fill="#AAB3C5" font-family="Inter,Arial" font-size="17">Plan tratament</text><text x="24" y="166" fill="#AAB3C5" font-family="Inter,Arial" font-size="17">Progres</text></g><g transform="translate(610 245)"><rect width="220" height="230" rx="24" fill="#172033"/><text x="24" y="54" fill="white" font-family="Inter,Arial" font-size="24" font-weight="800">Psiholog</text><text x="24" y="98" fill="#AAB3C5" font-family="Inter,Arial" font-size="17">Intake</text><text x="24" y="132" fill="#AAB3C5" font-family="Inter,Arial" font-size="17">Consimțământ</text><text x="24" y="166" fill="#AAB3C5" font-family="Inter,Arial" font-size="17">Follow-up</text></g><g transform="translate(865 245)"><rect width="220" height="230" rx="24" fill="#172033"/><text x="24" y="54" fill="white" font-family="Inter,Arial" font-size="24" font-weight="800">Beauty</text><text x="24" y="98" fill="#AAB3C5" font-family="Inter,Arial" font-size="17">Booking</text><text x="24" y="132" fill="#AAB3C5" font-family="Inter,Arial" font-size="17">Stilist</text><text x="24" y="166" fill="#AAB3C5" font-family="Inter,Arial" font-size="17">Retenție VIP</text></g></svg>